<svg width="26" height="27" viewBox="0 0 26 27" fill="none" xmlns="http://www.w3.org/2000/svg">
<g clip-path="url(#clip0_388_243)">
<path d="M13 27C20.1797 27 26 20.9558 26 13.5C26 6.04416 20.1797 0 13 0C5.8203 0 0 6.04416 0 13.5C0 20.9558 5.8203 27 13 27Z" fill="#1F621F"/>
<path d="M10.8047 14.5983H8.77296C8.4541 14.5983 8.33963 14.4783 8.33963 14.148C8.33963 13.2966 8.33963 12.4458 8.33963 11.5958C8.33963 11.2676 8.46023 11.1434 8.77501 11.1434H10.8047V9.30242C10.7806 8.47545 10.9734 7.65707 11.3627 6.93328C11.7675 6.20257 12.4161 5.64784 13.1881 5.37209C13.6891 5.18444 14.2186 5.09039 14.7517 5.09436H16.761C17.0492 5.09436 17.1698 5.22481 17.1698 5.51516V7.91586C17.1698 8.21674 17.0472 8.33667 16.761 8.33667C16.2112 8.33667 15.6613 8.33667 15.1135 8.35981C14.5657 8.38296 14.2673 8.63965 14.2673 9.22878C14.255 9.85999 14.2673 10.4786 14.2673 11.1224H16.6282C16.9634 11.1224 17.0778 11.2402 17.0778 11.5874C17.0778 12.429 17.0778 13.2748 17.0778 14.1249C17.0778 14.4678 16.9715 14.5751 16.6343 14.5772H14.255V21.4237C14.255 21.7898 14.1447 21.9056 13.7931 21.9056H11.234C10.9253 21.9056 10.8047 21.7814 10.8047 21.4637V14.5983Z" fill="white"/>
</g>
<defs>
<clipPath id="clip0_388_243">
<rect width="26" height="27" fill="white"/>
</clipPath>
</defs>
</svg>
