 <svg width="14" height="14" viewBox="0 0 14 14" fill="none" xmlns="http://www.w3.org/2000/svg">
                  <g clip-path="url(#clip0_19_113)">
                  <path d="M7 0.583313C5.7309 0.583313 4.4903 0.959644 3.43509 1.66472C2.37987 2.36979 1.55743 3.37194 1.07177 4.54443C0.586109 5.71692 0.459037 7.0071 0.706626 8.25181C0.954214 9.49652 1.56534 10.6399 2.46273 11.5372C3.36012 12.4346 4.50346 13.0458 5.74817 13.2934C6.99288 13.5409 8.28306 13.4139 9.45555 12.9282C10.628 12.4425 11.6302 11.6201 12.3353 10.5649C13.0403 9.50967 13.4167 8.26908 13.4167 6.99998C13.4147 5.29879 12.738 3.66785 11.535 2.46493C10.3321 1.262 8.70119 0.58532 7 0.583313ZM7 12.25C5.96165 12.25 4.94661 11.9421 4.08325 11.3652C3.2199 10.7883 2.54699 9.96838 2.14963 9.00907C1.75227 8.04976 1.6483 6.99416 1.85088 5.97576C2.05345 4.95736 2.55346 4.02189 3.28769 3.28767C4.02191 2.55344 4.95737 2.05343 5.97577 1.85086C6.99417 1.64828 8.04977 1.75225 9.00909 2.14961C9.9684 2.54697 10.7883 3.21988 11.3652 4.08324C11.9421 4.94659 12.25 5.96163 12.25 6.99998C12.2483 8.39185 11.6946 9.72622 10.7104 10.7104C9.72624 11.6946 8.39186 12.2483 7 12.25Z" fill="#5A5A5A"/>
                  <path d="M7.58333 6.75852V3.50002C7.58333 3.34531 7.52187 3.19694 7.41248 3.08754C7.30308 2.97815 7.15471 2.91669 7 2.91669C6.84529 2.91669 6.69691 2.97815 6.58752 3.08754C6.47812 3.19694 6.41666 3.34531 6.41666 3.50002V7.00002C6.4167 7.15472 6.47818 7.30307 6.58758 7.41244L8.33758 9.16244C8.4476 9.2687 8.59495 9.32749 8.7479 9.32616C8.90085 9.32483 9.04715 9.26349 9.15531 9.15533C9.26346 9.04718 9.32481 8.90087 9.32614 8.74792C9.32747 8.59497 9.26867 8.44762 9.16241 8.3376L7.58333 6.75852Z" fill="#5A5A5A"/>
                  </g>
                  <defs>
                  <clipPath id="clip0_19_113">
                  <rect width="14" height="14" fill="white"/>
                  </clipPath>
                  </defs>
                  </svg>