<svg width="27" height="27" viewBox="0 0 27 27" fill="none" xmlns="http://www.w3.org/2000/svg">
<g clip-path="url(#clip0_441_2)">
<path d="M13.5 0C10.83 0 8.21987 0.791761 5.99981 2.27516C3.77974 3.75856 2.04942 5.86697 1.02763 8.33377C0.00584931 10.8006 -0.261496 13.515 0.259405 16.1337C0.780305 18.7525 2.06606 21.1579 3.95406 23.0459C5.84207 24.934 8.24754 26.2197 10.8663 26.7406C13.485 27.2615 16.1994 26.9942 18.6662 25.9724C21.133 24.9506 23.2414 23.2203 24.7248 21.0002C26.2082 18.7801 27 16.17 27 13.5C27 9.91958 25.5777 6.4858 23.0459 3.95406C20.5142 1.42232 17.0804 0 13.5 0ZM9.57435 20.6053H6.62922V11.118H9.57435V20.6053ZM8.10001 9.82303C7.76106 9.82443 7.42931 9.72531 7.14668 9.5382C6.86406 9.3511 6.64325 9.0844 6.51216 8.77183C6.38107 8.45925 6.3456 8.11483 6.41022 7.7821C6.47484 7.44937 6.63665 7.14326 6.87521 6.90248C7.11376 6.66169 7.41834 6.49703 7.75046 6.42931C8.08257 6.36159 8.42731 6.39386 8.74109 6.52202C9.05487 6.65019 9.32362 6.8685 9.51335 7.14937C9.70308 7.43024 9.80529 7.76106 9.80705 8.1C9.808 8.5545 9.62896 8.99089 9.30908 9.31377C8.9892 9.63665 8.5545 9.81974 8.10001 9.82303ZM20.6053 20.6053H17.6619V15.9868C17.6619 14.8855 17.6406 13.4734 16.1307 13.4734C14.6209 13.4734 14.3544 14.6706 14.3544 15.9069V20.6053H11.4217V11.118H14.2478V12.4111H14.2887C14.6813 11.6651 15.6422 10.8782 17.0757 10.8782C20.0564 10.8782 20.6053 12.8428 20.6053 15.3936V20.6053Z" fill="#1F621F"/>
</g>
<defs>
<clipPath id="clip0_441_2">
<rect width="27" height="27" fill="white"/>
</clipPath>
</defs>
</svg>
