<svg width="27" height="27" viewBox="0 0 27 27" fill="none" xmlns="http://www.w3.org/2000/svg">
<g clip-path="url(#clip0_388_213)">
<path d="M13.4999 0C6.04444 0 0.000396729 6.04449 0.000396729 13.4997C0.000396729 20.955 6.04444 27 13.4999 27C20.9555 27 27.0002 20.9553 27.0002 13.4997C27.0002 6.04413 20.9555 0 13.4999 0ZM20.283 11.0972L16.9812 14.3989C16.6231 14.757 16.147 14.9542 15.6407 14.9542C15.1344 14.9542 14.6582 14.7569 14.3001 14.3991L14.1708 14.2698L13.8193 14.6213L13.9483 14.7504C14.6876 15.4896 14.6876 16.6925 13.9483 17.4317L10.647 20.7335C10.2889 21.0916 9.81283 21.2888 9.30622 21.2888C8.7997 21.2888 8.32351 21.0915 7.96522 20.7332L6.71737 19.485C5.97811 18.7462 5.97811 17.5434 6.7171 16.8039L10.0191 13.5023C10.3772 13.1442 10.8533 12.947 11.3599 12.947C11.8665 12.947 12.3424 13.1443 12.7007 13.5023L12.8296 13.6312L13.1812 13.2797L13.0523 13.1508C12.313 12.4118 12.313 11.209 13.0518 10.4697L16.3538 7.16796C16.7121 6.80967 17.1883 6.61239 17.6947 6.61239C18.201 6.61239 18.6771 6.80967 19.0355 7.16769L20.2836 8.41626C21.0222 9.15507 21.0222 10.3581 20.283 11.0972Z" fill="#1F621F"/>
<path d="M12.8285 15.6112L12.1901 16.2496L11.2 15.2597L11.8383 14.6213L11.7094 14.4924C11.6158 14.3991 11.4915 14.3474 11.3593 14.3474C11.227 14.3474 11.1026 14.399 11.009 14.4924L7.70723 17.7937C7.51418 17.9869 7.51418 18.3011 7.70723 18.4942L8.95553 19.7427C9.143 19.9302 9.46925 19.9299 9.65627 19.743L12.9576 16.4413C13.1509 16.248 13.1509 15.9336 12.9576 15.7403L12.8285 15.6112Z" fill="#1F621F"/>
<path d="M18.0444 8.15787C17.9508 8.06427 17.8261 8.0127 17.6937 8.0127C17.5613 8.0127 17.4367 8.06427 17.3431 8.15814L14.0413 11.4597C13.8486 11.6529 13.8486 11.9671 14.0416 12.1604L14.1707 12.2893L15.1499 11.3098L16.1401 12.3L15.1609 13.2795L15.2899 13.4086C15.4774 13.5955 15.8032 13.5958 15.9907 13.4083L19.2922 10.107C19.4853 9.91377 19.4853 9.59958 19.2922 9.40626L18.0444 8.15787Z" fill="#1F621F"/>
</g>
<defs>
<clipPath id="clip0_388_213">
<rect width="27" height="27" fill="white"/>
</clipPath>
</defs>
</svg>
