<svg width="16" height="16" viewBox="0 0 16 16" fill="none" xmlns="http://www.w3.org/2000/svg">
<path d="M15 12L12.106 14.894C11.8825 15.1175 11.5 14.959 11.5 14.643V12.713C10.5135 12.5785 9.603 12.0545 9 11.25L8.125 10.0835L9.0625 8.8335L10.2 10.35C10.5205 10.778 10.986 11.074 11.5 11.192V9.357C11.5 9.0405 11.8825 8.8825 12.106 9.106L15 12Z" fill="#5A5A5A"/>
<path d="M6.875 5.9165L5.9375 7.1665L4.8 5.65C4.375 5.0835 3.708 4.75 3 4.75H1.75C1.336 4.75 1 4.414 1 4C1 3.586 1.336 3.25 1.75 3.25H3C4.1805 3.25 5.292 3.8055 6 4.75L6.875 5.9165Z" fill="#5A5A5A"/>
<path d="M15 3.99856L12.106 6.89256C11.8825 7.11656 11.5 6.95806 11.5 6.64156V4.80656C10.986 4.92456 10.521 5.22056 10.2 5.64856L6 11.2486C5.292 12.1931 4.1805 12.7486 3 12.7486H1.75C1.336 12.7486 1 12.4126 1 11.9986C1 11.5846 1.336 11.2486 1.75 11.2486H3C3.708 11.2486 4.375 10.9151 4.8 10.3486L9 4.74856C9.603 3.94406 10.5135 3.42006 11.5 3.28556V1.35556C11.5 1.03906 11.8825 0.88106 12.106 1.10456L15 3.99856Z" fill="#5A5A5A"/>
</svg>
