<svg width="50" height="50" viewBox="0 0 50 50" fill="none" xmlns="http://www.w3.org/2000/svg">
<path d="M25 46.875C20.6735 46.875 16.4442 45.5921 12.8469 43.1884C9.24958 40.7848 6.4458 37.3683 4.79014 33.3712C3.13447 29.3741 2.70127 24.9757 3.54532 20.7324C4.38938 16.4891 6.47277 12.5913 9.53204 9.53205C12.5913 6.47277 16.4891 4.38938 20.7324 3.54533C24.9757 2.70128 29.3741 3.13448 33.3712 4.79014C37.3683 6.44581 40.7847 9.24959 43.1884 12.8469C45.5921 16.4442 46.875 20.6735 46.875 25C46.875 30.8016 44.5703 36.3656 40.468 40.468C36.3656 44.5703 30.8016 46.875 25 46.875ZM25 6.25001C21.2916 6.25001 17.6665 7.34968 14.5831 9.40995C11.4996 11.4702 9.0964 14.3986 7.67726 17.8247C6.25812 21.2508 5.88681 25.0208 6.61028 28.658C7.33375 32.2951 9.11951 35.636 11.7417 38.2583C14.364 40.8805 17.7049 42.6663 21.3421 43.3897C24.9792 44.1132 28.7492 43.7419 32.1753 42.3228C35.6014 40.9036 38.5298 38.5004 40.5901 35.417C42.6503 32.3335 43.75 28.7084 43.75 25C43.75 20.0272 41.7746 15.2581 38.2583 11.7418C34.7419 8.22545 29.9728 6.25001 25 6.25001ZM20.3125 19.7813V30.1563C20.313 30.4288 20.3847 30.6964 20.5206 30.9327C20.6565 31.1689 20.8518 31.3655 21.0871 31.5029C21.3225 31.6403 21.5897 31.7138 21.8622 31.716C22.1347 31.7183 22.4031 31.6492 22.6406 31.5156L31.9375 26.3594C32.1817 26.2243 32.3853 26.0262 32.527 25.7858C32.6688 25.5453 32.7436 25.2713 32.7436 24.9922C32.7436 24.7131 32.6688 24.4391 32.527 24.1986C32.3853 23.9582 32.1817 23.7601 31.9375 23.625L22.6406 18.4219C22.4031 18.2883 22.1347 18.2193 21.8622 18.2215C21.5897 18.2237 21.3225 18.2972 21.0871 18.4346C20.8518 18.572 20.6565 18.7686 20.5206 19.0048C20.3847 19.2411 20.313 19.5087 20.3125 19.7813Z" fill="#1F621F"/>
</svg>
