<svg width="13" height="13" viewBox="0 0 13 13" fill="none" xmlns="http://www.w3.org/2000/svg">
<path d="M6.5 8.125C7.39746 8.125 8.125 7.39746 8.125 6.5C8.125 5.60254 7.39746 4.875 6.5 4.875C5.60254 4.875 4.875 5.60254 4.875 6.5C4.875 7.39746 5.60254 8.125 6.5 8.125Z" fill="#ABABAB"/>
<path d="M6.5 13C7.39746 13 8.125 12.2725 8.125 11.375C8.125 10.4775 7.39746 9.75 6.5 9.75C5.60254 9.75 4.875 10.4775 4.875 11.375C4.875 12.2725 5.60254 13 6.5 13Z" fill="#ABABAB"/>
<path d="M6.5 3.25C7.39746 3.25 8.125 2.52246 8.125 1.625C8.125 0.727537 7.39746 0 6.5 0C5.60254 0 4.875 0.727537 4.875 1.625C4.875 2.52246 5.60254 3.25 6.5 3.25Z" fill="#ABABAB"/>
</svg>
