<svg width="44" height="44" viewBox="0 0 44 44" fill="none" xmlns="http://www.w3.org/2000/svg">
<path d="M22 43.875C17.6735 43.875 13.4442 42.5921 9.8469 40.1884C6.24958 37.7848 3.4458 34.3683 1.79014 30.3712C0.13447 26.3741 -0.298728 21.9757 0.545324 17.7324C1.38938 13.4891 3.47277 9.59132 6.53204 6.53205C9.59131 3.47277 13.4891 1.38938 17.7324 0.545332C21.9757 -0.29872 26.3741 0.134478 30.3712 1.79014C34.3683 3.44581 37.7847 6.24959 40.1884 9.84691C42.5921 13.4442 43.875 17.6735 43.875 22C43.875 27.8016 41.5703 33.3656 37.468 37.468C33.3656 41.5703 27.8016 43.875 22 43.875ZM22 3.25001C18.2916 3.25001 14.6665 4.34968 11.5831 6.40995C8.49964 8.47023 6.0964 11.3986 4.67726 14.8247C3.25812 18.2508 2.88681 22.0208 3.61028 25.658C4.33375 29.2951 6.11951 32.636 8.74175 35.2583C11.364 37.8805 14.7049 39.6663 18.3421 40.3897C21.9792 41.1132 25.7492 40.7419 29.1753 39.3228C32.6014 37.9036 35.5298 35.5004 37.5901 32.417C39.6503 29.3335 40.75 25.7084 40.75 22C40.75 17.0272 38.7746 12.2581 35.2583 8.74176C31.7419 5.22545 26.9728 3.25001 22 3.25001ZM17.3125 16.7813V27.1563C17.313 27.4288 17.3847 27.6964 17.5206 27.9327C17.6565 28.1689 17.8518 28.3655 18.0871 28.5029C18.3225 28.6403 18.5897 28.7138 18.8622 28.716C19.1347 28.7183 19.4031 28.6492 19.6406 28.5156L28.9375 23.3594C29.1817 23.2243 29.3853 23.0262 29.527 22.7858C29.6688 22.5453 29.7436 22.2713 29.7436 21.9922C29.7436 21.7131 29.6688 21.4391 29.527 21.1986C29.3853 20.9582 29.1817 20.7601 28.9375 20.625L19.6406 15.4219C19.4031 15.2883 19.1347 15.2193 18.8622 15.2215C18.5897 15.2237 18.3225 15.2972 18.0871 15.4346C17.8518 15.572 17.6565 15.7686 17.5206 16.0048C17.3847 16.2411 17.313 16.5087 17.3125 16.7813Z" fill="#1F621F"/>
</svg>
