<svg width="16" height="16" viewBox="0 0 16 16" fill="none" xmlns="http://www.w3.org/2000/svg">
<g clip-path="url(#clip0_32_6)">
<path d="M9.10312 0.89692L3.31562 4.77192C3.26562 4.80317 3.20625 4.81879 3.14687 4.81879H0.38125C0.20625 4.81879 0.0625 4.96254 0.0625 5.13754V10.8532C0.0625 11.0282 0.20625 11.1719 0.38125 11.1719H3.14687C3.20625 11.1719 3.26562 11.1875 3.31562 11.2188L9.10312 15.1032C9.31562 15.2344 9.5875 15.0844 9.5875 14.8344V1.16567C9.59062 0.91567 9.31562 0.762545 9.10312 0.89692Z" fill="#5A5A5A"/>
<path d="M11.8344 5.7501C11.525 5.44072 11.0219 5.44072 10.7125 5.7501C10.4031 6.05947 10.4031 6.5626 10.7125 6.87197C11.0125 7.17197 11.1781 7.57197 11.1781 7.99385C11.1781 8.41572 11.0125 8.81572 10.7125 9.11572C10.4031 9.4251 10.4031 9.92822 10.7125 10.2376C10.8688 10.3938 11.0719 10.4688 11.275 10.4688C11.4781 10.4688 11.6813 10.3907 11.8375 10.2376C12.4375 9.6376 12.7688 8.84072 12.7688 7.99072C12.7656 7.14697 12.4344 6.3501 11.8344 5.7501Z" fill="#5A5A5A"/>
<path d="M14.0813 3.50315C13.7719 3.19377 13.2688 3.19377 12.9594 3.50315C12.65 3.81252 12.65 4.31565 12.9594 4.62502C14.8156 6.48127 14.8156 9.50315 12.9594 11.3625C12.65 11.6719 12.65 12.175 12.9594 12.4844C13.1156 12.6406 13.3188 12.7156 13.5219 12.7156C13.725 12.7156 13.9281 12.6375 14.0844 12.4844C16.5563 10.0094 16.5563 5.98127 14.0813 3.50315Z" fill="#5A5A5A"/>
</g>
<defs>
<clipPath id="clip0_32_6">
<rect width="16" height="16" fill="white"/>
</clipPath>
</defs>
</svg>
