 <svg width="15" height="15" viewBox="0 0 15 15" fill="none" xmlns="http://www.w3.org/2000/svg">
    <path fill-rule="evenodd" clip-rule="evenodd" d="M12.0625 7.11181V12.5C12.0625 12.6491 12.0034 12.7925 11.8977 12.8977C11.7925 13.0034 11.6491 13.0625 11.5 13.0625H2.5C2.35094 13.0625 2.2075 13.0034 2.10231 12.8977C1.99656 12.7925 1.9375 12.6491 1.9375 12.5V3.5C1.9375 3.35094 1.99656 3.2075 2.10231 3.10231C2.2075 2.99656 2.35094 2.9375 2.5 2.9375H7.88819C8.19869 2.9375 8.45069 2.6855 8.45069 2.375C8.45069 2.0645 8.19869 1.8125 7.88819 1.8125C7.88819 1.8125 4.36356 1.8125 2.5 1.8125C2.05225 1.8125 1.62306 1.99025 1.30694 2.30694C0.99025 2.62306 0.8125 3.05225 0.8125 3.5V12.5C0.8125 12.9478 0.99025 13.3769 1.30694 13.6931C1.62306 14.0098 2.05225 14.1875 2.5 14.1875H11.5C11.9478 14.1875 12.3769 14.0098 12.6931 13.6931C13.0098 13.3769 13.1875 12.9478 13.1875 12.5V7.11181C13.1875 6.80131 12.9355 6.54931 12.625 6.54931C12.3145 6.54931 12.0625 6.80131 12.0625 7.11181Z" fill="#5A5A5A"/>
    <path fill-rule="evenodd" clip-rule="evenodd" d="M9.69606 3.61646L11.3836 5.30396C11.6029 5.52334 11.9596 5.52334 12.1789 5.30396C12.3983 5.08459 12.3983 4.72796 12.1789 4.50859L10.4914 2.82109C10.2721 2.60171 9.91543 2.60171 9.69606 2.82109C9.47668 3.04046 9.47668 3.39709 9.69606 3.61646Z" fill="#5A5A5A"/>
    <path fill-rule="evenodd" clip-rule="evenodd" d="M4.35231 7.60233C4.24656 7.70752 4.1875 7.85096 4.1875 8.00002V10.25C4.1875 10.5605 4.4395 10.8125 4.75 10.8125H7C7.14906 10.8125 7.2925 10.7535 7.39769 10.6477L14.1477 3.89771C14.3676 3.67833 14.3676 3.32171 14.1477 3.10233L11.8977 0.852331C11.6783 0.632394 11.3217 0.632394 11.1023 0.852331L4.35231 7.60233ZM5.3125 8.23289L11.5 2.04539L12.9546 3.50002L6.76713 9.68752H5.3125V8.23289Z" fill="#5A5A5A"/>
</svg>