<svg width="26" height="27" viewBox="0 0 26 27" fill="none" xmlns="http://www.w3.org/2000/svg">
<g clip-path="url(#clip0_388_235)">
<path d="M13 27C20.1797 27 26 20.9558 26 13.5C26 6.04416 20.1797 0 13 0C5.8203 0 0 6.04416 0 13.5C0 20.9558 5.8203 27 13 27Z" fill="#1F621F"/>
<path d="M16.2562 6.11328H10.357C9.20443 6.11486 8.09949 6.59104 7.28449 7.43738C6.46949 8.28373 6.01095 9.43116 6.00943 10.6281V16.7542C6.01095 17.9511 6.46949 19.0985 7.28449 19.9448C8.09949 20.7912 9.20443 21.2674 10.357 21.2689H16.2562C17.4089 21.2679 18.5142 20.7919 19.3293 19.9454C20.1444 19.099 20.6028 17.9512 20.6038 16.7542V10.6281C20.6022 9.43116 20.1437 8.28373 19.3287 7.43738C18.5137 6.59104 17.4088 6.11486 16.2562 6.11328ZM19.1367 16.7542C19.1367 17.5475 18.8332 18.3083 18.293 18.8693C17.7528 19.4302 17.0201 19.7454 16.2562 19.7454H10.357C9.59306 19.7454 8.8604 19.4302 8.32021 18.8693C7.78002 18.3083 7.47654 17.5475 7.47654 16.7542V10.6281C7.47654 9.83474 7.78002 9.07391 8.32021 8.51294C8.8604 7.95197 9.59306 7.63682 10.357 7.63682H16.2562C17.0201 7.63682 17.7528 7.95197 18.293 8.51294C18.8332 9.07391 19.1367 9.83474 19.1367 10.6281V16.7542Z" fill="white"/>
<path d="M13.3066 9.77246C12.5597 9.77207 11.8296 10.0017 11.2084 10.4324C10.5873 10.863 10.1031 11.4753 9.81709 12.1917C9.53111 12.9082 9.45618 13.6967 9.60179 14.4574C9.7474 15.2181 10.107 15.9168 10.6351 16.4652C11.1632 17.0136 11.8361 17.3871 12.5686 17.5383C13.3011 17.6895 14.0604 17.6117 14.7503 17.3147C15.4402 17.0177 16.0298 16.5149 16.4445 15.8699C16.8592 15.2248 17.0804 14.4666 17.08 13.691C17.079 12.6521 16.6811 11.656 15.9737 10.9213C15.2662 10.1867 14.307 9.77352 13.3066 9.77246ZM13.3066 16.084C12.8508 16.084 12.4053 15.9436 12.0264 15.6807C11.6474 15.4178 11.352 15.044 11.1776 14.6068C11.0032 14.1695 10.9576 13.6883 11.0465 13.2241C11.1354 12.7599 11.3549 12.3336 11.6772 11.9989C11.9994 11.6642 12.41 11.4363 12.857 11.344C13.304 11.2516 13.7674 11.299 14.1884 11.4802C14.6095 11.6613 14.9694 11.968 15.2226 12.3615C15.4758 12.755 15.611 13.2177 15.611 13.691C15.611 14.3257 15.3682 14.9343 14.936 15.3831C14.5039 15.8319 13.9177 16.084 13.3066 16.084Z" fill="white"/>
<path d="M17.103 10.7418C17.6185 10.7418 18.0363 10.3079 18.0363 9.77263C18.0363 9.23738 17.6185 8.80347 17.103 8.80347C16.5876 8.80347 16.1698 9.23738 16.1698 9.77263C16.1698 10.3079 16.5876 10.7418 17.103 10.7418Z" fill="white"/>
</g>
<defs>
<clipPath id="clip0_388_235">
<rect width="26" height="27" fill="white"/>
</clipPath>
</defs>
</svg>
