<svg width="27" height="27" viewBox="0 0 27 27" fill="none" xmlns="http://www.w3.org/2000/svg">
<g clip-path="url(#clip0_388_206)">
<path d="M13.5 27C20.9558 27 27 20.9558 27 13.5C27 6.04416 20.9558 0 13.5 0C6.04416 0 0 6.04416 0 13.5C0 20.9558 6.04416 27 13.5 27Z" fill="#1F621F"/>
<path d="M19.4523 7.54784C18.0477 6.12927 16.1824 5.2593 14.1929 5.09487C12.2034 4.93043 10.2207 5.48235 8.60227 6.65108C6.98386 7.8198 5.83637 9.52839 5.36677 11.4687C4.89717 13.4089 5.13638 15.4531 6.04124 17.2326L5.153 21.5449C5.14379 21.5878 5.14352 21.6322 5.15224 21.6752C5.16095 21.7182 5.17844 21.759 5.20363 21.795C5.24052 21.8495 5.29319 21.8915 5.35459 21.9154C5.41599 21.9392 5.48321 21.9438 5.54726 21.9284L9.77368 20.9267C11.5481 21.8086 13.5779 22.0324 15.5019 21.5583C17.4258 21.0842 19.1192 19.9428 20.2806 18.3374C21.442 16.7319 21.9962 14.7664 21.8445 12.7907C21.6929 10.815 20.8452 8.95721 19.4523 7.54784ZM18.1345 18.0656C17.1627 19.0347 15.9113 19.6744 14.5566 19.8945C13.202 20.1147 11.8124 19.9043 10.5837 19.2928L9.99459 19.0014L7.40351 19.615L7.41118 19.5828L7.94812 16.9748L7.65971 16.4057C7.0319 15.1727 6.81043 13.7726 7.02703 12.4061C7.24363 11.0395 7.88718 9.77655 8.8655 8.79813C10.0948 7.56923 11.7618 6.87888 13.5 6.87888C15.2382 6.87888 16.9052 7.56923 18.1345 8.79813C18.1449 8.81013 18.1562 8.82141 18.1682 8.83188C19.3823 10.0639 20.06 11.726 20.0537 13.4557C20.0474 15.1854 19.3575 16.8424 18.1345 18.0656Z" fill="white"/>
<path d="M17.9044 16.1527C17.5868 16.6528 17.0852 17.2649 16.4546 17.4168C15.3501 17.6837 13.6549 17.426 11.5456 15.4593L11.5195 15.4362C9.66476 13.7165 9.18306 12.2852 9.29965 11.15C9.36408 10.5057 9.90101 9.92272 10.3536 9.54226C10.4251 9.4812 10.51 9.43772 10.6013 9.41531C10.6927 9.3929 10.788 9.39218 10.8797 9.4132C10.9714 9.43422 11.0569 9.4764 11.1293 9.53637C11.2018 9.59634 11.2592 9.67244 11.297 9.75857L11.9797 11.2927C12.0241 11.3921 12.0405 11.5018 12.0273 11.6099C12.014 11.718 11.9716 11.8205 11.9045 11.9063L11.5594 12.3543C11.4853 12.4467 11.4406 12.5593 11.431 12.6774C11.4215 12.7955 11.4475 12.9138 11.5057 13.017C11.699 13.356 12.1623 13.8546 12.6762 14.3164C13.253 14.8379 13.8927 15.315 14.2977 15.4777C14.4061 15.5219 14.5252 15.5327 14.6398 15.5087C14.7544 15.4846 14.8591 15.4268 14.9405 15.3427L15.3409 14.9392C15.4182 14.863 15.5142 14.8087 15.6193 14.7817C15.7244 14.7548 15.8348 14.7562 15.9392 14.7858L17.5607 15.246C17.6502 15.2735 17.7322 15.321 17.8004 15.385C17.8687 15.449 17.9214 15.5277 17.9546 15.6152C17.9877 15.7027 18.0004 15.7966 17.9917 15.8897C17.983 15.9829 17.9532 16.0728 17.9044 16.1527Z" fill="white"/>
</g>
<defs>
<clipPath id="clip0_388_206">
<rect width="27" height="27" fill="white"/>
</clipPath>
</defs>
</svg>
